# xmcd
#
# Track frame offsets:
#	150
#	10585
#	20788
#	31193
#	41018
#	52053
#	61353
#	71558
#	83825
#	93653
#
# Disc length: 1375 seconds
#
# Revision: 0
# Processed by: cddbd v1.5.2PL0 Copyright (c) Steve Scherf et al.
# Submitted via: audiograbber 1.83.01
#
DISCID=80055d0a
DTITLE=Roy Orbison - Youre my baby
DYEAR=1990
DGENRE=Rock´n´Roll
TTITLE0=Chicken Hearted
TTITLE1=Devil Doll
TTITLE2=Domino
TTITLE3=Go Go Go
TTITLE4=I Never Knew
TTITLE5=He's Too Late
TTITLE6=Ooby Dooby
TTITLE7=Trying to Get to You
TTITLE8=You're Gonna Cry
TTITLE9=You're My Baby
EXTD=YEAR: 1990
EXTT0=
EXTT1=
EXTT2=
EXTT3=
EXTT4=
EXTT5=
EXTT6=
EXTT7=
EXTT8=
EXTT9=
PLAYORDER=
